PathFileType	4	(X/Y/Z)	RBDS022static.trc
DataRate	CameraRate	NumFrames	NumMarkers	Units	OrigDataRate	OrigDataStartFrame	OrigNumFrames
150.000000	150.000000	4	48	mm	150.000000	18	150
Frame#	Time	L.Ankle			L.Ankle.Medial			L.ASIS			L.GTR			L.Heel.Bottom			L.Heel.Lateral			L.Heel.Top			L.HF			L.Iliac.Crest			L.Knee			L.Knee.Medial			L.MT1			L.MT2			L.MT5			L.PSIS			L.Shank.Bottom.Lateral			L.Shank.Bottom.Medial			L.Shank.Top.Lateral			L.Shank.Top.Medial			L.Thigh.Bottom.Lateral			L.Thigh.Bottom.Medial			L.Thigh.Top.Lateral			L.Thigh.Top.Medial			L.TT			R.Ankle			R.Ankle.Medial			R.ASIS			R.GTR			R.Heel.Bottom			R.Heel.Lateral			R.Heel.Top			R.HF			R.Iliac.Crest			R.Knee			R.Knee.Medial			R.MT1			R.MT2			R.MT5			R.PSIS			R.Shank.Bottom.Lateral			R.Shank.Bottom.Medial			R.Shank.Top.Lateral			R.Shank.Top.Medial			R.Thigh.Bottom.Lateral			R.Thigh.Bottom.Medial			R.Thigh.Top.Lateral			R.Thigh.Top.Medial			R.TT			
		X1	Y1	Z1	X2	Y2	Z2	X3	Y3	Z3	X4	Y4	Z4	X5	Y5	Z5	X6	Y6	Z6	X7	Y7	Z7	X8	Y8	Z8	X9	Y9	Z9	X10	Y10	Z10	X11	Y11	Z11	X12	Y12	Z12	X13	Y13	Z13	X14	Y14	Z14	X15	Y15	Z15	X16	Y16	Z16	X17	Y17	Z17	X18	Y18	Z18	X19	Y19	Z19	X20	Y20	Z20	X21	Y21	Z21	X22	Y22	Z22	X23	Y23	Z23	X24	Y24	Z24	X25	Y25	Z25	X26	Y26	Z26	X27	Y27	Z27	X28	Y28	Z28	X29	Y29	Z29	X30	Y30	Z30	X31	Y31	Z31	X32	Y32	Z32	X33	Y33	Z33	X34	Y34	Z34	X35	Y35	Z35	X36	Y36	Z36	X37	Y37	Z37	X38	Y38	Z38	X39	Y39	Z39	X40	Y40	Z40	X41	Y41	Z41	X42	Y42	Z42	X43	Y43	Z43	X44	Y44	Z44	X45	Y45	Z45	X46	Y46	Z46	X47	Y47	Z47	X48	Y48	Z48	

19	0.12	707.4725952148438	106.5275726318359	1036.196044921875	725.9287109375	126.5910491943359	1120.830688476563	844.3616943359375	1006.063415527344	1098.166748046875	764.5485229492188	903.2640380859375	1034.383911132813	636.0535278320313	38.46539306640625	1086.990112304688	666.424560546875	60.86874008178711	1041.63720703125	643.7937622070313	84.03557586669922	1088.226318359375	740.1689453125	471.6697692871094	1039.48486328125	758.2363891601563	1077.009155273438	1049.12255859375	746.4273071289063	540.4608764648438	1043.462768554688	743.9513549804688	519.810302734375	1168.197265625	854.371337890625	57.90187835693359	1123.1806640625	861.6532592773438	68.03965759277344	1076.4052734375	821.3045043945313	47.04207992553711	1010.173767089844	670.7133178710938	1030.221313476563	1171.750244140625	696.1171264648438	190.7270812988281	1029.989379882813	658.1979370117188	192.3024291992188	1070.177612304688	689.4569702148438	270.4202880859375	1020.894104003906	652.5416870117188	272.9562377929688	1060.054443359375	744.6322631835938	646.1508178710938	1030.851806640625	686.0342407226563	654.5269165039063	1074.053344726563	748.9109497070313	755.0800170898438	1018.156982421875	695.14306640625	762.6016845703125	1061.995971679688	790.6878662109375	446.9251098632813	1091.114135742188	700.9783325195313	108.3004989624023	1414.656982421875	725.0509033203125	128.7689971923828	1330.646606445313	836.3046264648438	1006.573486328125	1336.417602539063	765.6582641601563	908.5314331054688	1393.083251953125	631.3150634765625	40.037353515625	1367.376220703125	663.1389770507813	60.56061553955078	1411.336059570313	638.9478759765625	83.494384765625	1366.93310546875	750.3521728515625	473.8158264160156	1400.177978515625	767.6929321289063	1074.336059570313	1376.650512695313	757.3541870117188	535.9344482421875	1395.475463867188	755.6307373046875	519.9597778320313	1271.3837890625	840.6993408203125	56.18463897705078	1319.990356445313	857.8829345703125	71.13948822021484	1373.96435546875	823.6156005859375	49.19097900390625	1435.545288085938	672.5068969726563	1030.791748046875	1256.954711914063	687.1021118164063	187.9422454833984	1416.45263671875	655.703125	195.1553039550781	1376.681518554688	693.7244262695313	272.2878723144531	1425.848754882813	657.8134155273438	275.6280212402344	1386.006958007813	757.0410766601563	636.4144287109375	1406.119750976563	697.172119140625	641.0909423828125	1366.701904296875	760.05859375	746.8306884765625	1413.20068359375	701.50732421875	750.5482177734375	1377.700805664063	799.29345703125	449.2565612792969	1357.754150390625	
20	0.1266666666666667	707.4691772460938	106.5309982299805	1036.192016601563	725.928955078125	126.5868301391602	1120.837524414063	844.3563232421875	1006.069274902344	1098.146728515625	764.5491943359375	903.268310546875	1034.377807617188	636.0496215820313	38.47334289550781	1086.994262695313	666.4223022460938	60.86772155761719	1041.634765625	643.7905883789063	84.04522705078125	1088.226806640625	740.1748046875	471.6688232421875	1039.482421875	758.2049560546875	1077.006225585938	1049.16162109375	746.4443359375	540.4625244140625	1043.453369140625	743.951416015625	519.8054809570313	1168.202514648438	854.374267578125	57.91115951538086	1123.164306640625	861.6454467773438	68.04216766357422	1076.40380859375	821.2932739257813	47.099365234375	1010.180419921875	670.7044677734375	1030.219116210938	1171.741333007813	696.1149291992188	190.7320556640625	1029.994995117188	658.1962280273438	192.3046112060547	1070.171875	689.454833984375	270.4187316894531	1020.889587402344	652.5438842773438	272.9554748535156	1060.046752929688	744.636962890625	646.1566772460938	1030.8447265625	686.041259765625	654.5214233398438	1074.052124023438	748.9201049804688	755.0809936523438	1018.162780761719	695.1458740234375	762.5975952148438	1061.992065429688	790.6836547851563	446.9346008300781	1091.11474609375	700.9776611328125	108.3052291870117	1414.652099609375	725.0574340820313	128.7815246582031	1330.636352539063	836.2959594726563	1006.575439453125	1336.41015625	765.6638793945313	908.5328369140625	1393.07470703125	631.3233032226563	40.03421020507813	1367.364990234375	663.1487426757813	60.56779479980469	1411.337158203125	638.9453125	83.49351501464844	1366.932983398438	750.362060546875	473.8320007324219	1400.176147460938	767.6892700195313	1074.31787109375	1376.649291992188	757.3623046875	535.9365844726563	1395.464111328125	755.6212768554688	519.9798583984375	1271.37646484375	840.70654296875	56.1887321472168	1319.981811523438	857.8716430664063	71.14058685302734	1373.959228515625	823.603271484375	49.19212341308594	1435.5478515625	672.5006713867188	1030.7841796875	1256.958251953125	687.1031494140625	187.9350280761719	1416.449096679688	655.7059936523438	195.1500396728516	1376.68798828125	693.72216796875	272.2947387695313	1425.840087890625	657.815185546875	275.6217651367188	1386.015258789063	757.0469970703125	636.4156494140625	1406.129638671875	697.18310546875	641.089111328125	1366.690185546875	760.0606079101563	746.8353271484375	1413.212646484375	701.5081787109375	750.5333862304688	1377.722412109375	799.305908203125	449.265869140625	1357.740112304688	
21	0.1333333333333333	707.4595336914063	106.5386047363281	1036.187866210938	725.96435546875	126.5605773925781	1120.84326171875	844.3436279296875	1006.0712890625	1098.142333984375	764.547607421875	903.2623901367188	1034.379028320313	636.0475463867188	38.46792602539063	1086.993896484375	666.4268188476563	60.87796020507813	1041.64111328125	643.8004760742188	84.04676055908203	1088.220458984375	740.185302734375	471.6812744140625	1039.486450195313	758.1585693359375	1077.008056640625	1049.137329101563	746.4473876953125	540.4736938476563	1043.45068359375	743.9456176757813	519.80908203125	1168.2001953125	854.3853149414063	57.90694808959961	1123.165771484375	861.65234375	68.01938629150391	1076.368408203125	821.3088989257813	47.04247283935547	1010.176025390625	670.6951904296875	1030.21484375	1171.740966796875	696.1215209960938	190.7402191162109	1029.988159179688	658.2054443359375	192.306396484375	1070.166870117188	689.457763671875	270.4281616210938	1020.891479492188	652.546875	272.9523315429688	1060.043334960938	744.6409912109375	646.15625	1030.853637695313	686.0501098632813	654.51953125	1074.061401367188	748.9197387695313	755.0870971679688	1018.157287597656	695.1551513671875	762.5912475585938	1061.9970703125	790.6961669921875	446.9406433105469	1091.103515625	701.0209350585938	108.4613571166992	1415.133544921875	725.0557861328125	128.7729797363281	1330.630859375	836.286376953125	1006.580993652344	1336.410278320313	765.6463012695313	908.5346069335938	1393.086669921875	631.322998046875	40.0348014831543	1367.373901367188	663.1380615234375	60.56607818603516	1411.324584960938	638.947998046875	83.48916625976563	1366.930053710938	750.3712158203125	473.821044921875	1400.173461914063	767.6641845703125	1074.314208984375	1376.644653320313	757.37255859375	535.927978515625	1395.446411132813	755.6139526367188	519.9759521484375	1271.366943359375	840.7069702148438	56.19258499145508	1319.993774414063	857.8789672851563	71.14659118652344	1373.953979492188	823.6011962890625	49.19027709960938	1435.551879882813	672.4890747070313	1030.786865234375	1256.958129882813	687.1100463867188	187.9352722167969	1416.453735351563	655.7028198242188	195.1480102539063	1376.684936523438	693.7305908203125	272.2899780273438	1425.839477539063	657.81494140625	275.6178894042969	1386.01220703125	757.0582885742188	636.4099731445313	1406.116333007813	697.19287109375	641.0831909179688	1366.694946289063	760.0634765625	746.8212890625	1413.2021484375	701.5115966796875	750.5364379882813	1377.713623046875	799.3059692382813	449.2606811523438	1357.71630859375	
22	0.14	707.4706420898438	106.5337753295898	1036.18994140625	725.9688720703125	126.558967590332	1120.83837890625	844.3419189453125	1006.079650878906	1098.124877929688	764.5491333007813	903.2615356445313	1034.364624023438	636.0554809570313	38.45903778076172	1086.989624023438	666.4269409179688	60.87355041503906	1041.640502929688	643.7930908203125	84.04102325439453	1088.233276367188	740.1819458007813	471.6741333007813	1039.47412109375	758.1160278320313	1077.002563476563	1049.160766601563	746.4546508789063	540.4686889648438	1043.454345703125	743.9483642578125	519.8157958984375	1168.201416015625	854.3847045898438	57.90377044677734	1123.16796875	861.6538696289063	68.03749847412109	1076.402709960938	821.30224609375	47.04306411743164	1010.174682617188	670.6719360351563	1030.20849609375	1171.734741210938	696.1178588867188	190.7260131835938	1029.99462890625	658.2052001953125	192.2933349609375	1070.1806640625	689.4593505859375	270.4253845214844	1020.890563964844	652.5486450195313	272.9467163085938	1060.039794921875	744.6377563476563	646.1515502929688	1030.848510742188	686.0609741210938	654.5162353515625	1074.064819335938	748.9173583984375	755.0847778320313	1018.164733886719	695.1632080078125	762.5859375	1061.998657226563	790.705322265625	446.9409484863281	1091.107299804688	701.0203857421875	108.4562225341797	1415.125610351563	725.0581665039063	128.76708984375	1330.641845703125	836.27294921875	1006.583862304688	1336.40283203125	765.6421508789063	908.5255126953125	1393.076293945313	631.3247680664063	40.03191375732422	1367.3623046875	663.1406860351563	60.56484603881836	1411.331298828125	638.6014404296875	83.72389984130859	1366.747314453125	750.3854370117188	473.8133239746094	1400.168090820313	767.6348876953125	1074.306274414063	1376.646606445313	757.3878784179688	535.93603515625	1395.45361328125	755.6075439453125	519.9981689453125	1271.363525390625	840.7134399414063	56.19297027587891	1319.983642578125	857.8773803710938	71.15621948242188	1373.96435546875	823.6058959960938	49.19347381591797	1435.549194335938	672.4882202148438	1030.773315429688	1256.956176757813	687.104248046875	187.9392547607422	1416.445068359375	655.706298828125	195.1509857177734	1376.683349609375	693.7393188476563	272.2833251953125	1425.841796875	657.8133544921875	275.6264038085938	1386.015502929688	757.0664672851563	636.3998413085938	1406.120483398438	697.2078247070313	641.0713500976563	1366.693237304688	760.0640869140625	746.8261108398438	1413.219482421875	701.5152587890625	750.5230712890625	1377.713012695313	799.3243408203125	449.2655944824219	1357.715698242188	
